# xmcd CD database file
#
# Track frame offsets:
#	150
#	15729
#	27707
#	46019
#	63483
#	87093
#	107955
#	120689
#	137232
#	154951
#
# Disc length: 2328 seconds
#
# Revision: 0
# Processed by: cddbd v1.4PL0 Copyright (c) Steve Scherf et al.
# Submitted via: CDex 1.50
#
DISCID=8709160a
DTITLE=André Bourque - La Musique est là
DYEAR=1998
DGENRE=Country
TTITLE0=Dit de ma mère
TTITLE1=Roule Roule mon Camion
TTITLE2=Rien ne pourra nous séparer
TTITLE3=Personne ne peut comprendre
TTITLE4=Les oiseaux blanc
TTITLE5=Tu dis je t'aime
TTITLE6=Aller aux Iles
TTITLE7=Tu n'as pas de coeur
TTITLE8=La Musique est là
TTITLE9=Je n'ai plus le temps pour toi
EXTD=YEAR: 1998
EXTT0=
EXTT1=
EXTT2=
EXTT3=
EXTT4=
EXTT5=
EXTT6=
EXTT7=
EXTT8=
EXTT9=
PLAYORDER=
